<?xml version="1.0" encoding="UTF-8" standalone="no"?>
<!DOCTYPE svg PUBLIC "-//W3C//DTD SVG 1.1//EN"
 "http://www.w3.org/Graphics/SVG/1.1/DTD/svg11.dtd">
<!-- Generated by graphviz version 2.38.0 (20140413.2041)
 -->
<!-- Title: %3 Pages: 1 -->
<svg width="386pt" height="267pt"
 viewBox="0.00 0.00 386.17 266.94" xmlns="http://www.w3.org/2000/svg" xmlns:xlink="http://www.w3.org/1999/xlink">
<g id="graph0" class="graph" transform="scale(1 1) rotate(0) translate(4 262.936)">
<title>%3</title>
<polygon fill="white" stroke="none" points="-4,4 -4,-262.936 382.165,-262.936 382.165,4 -4,4"/>
<!-- In0 -->
<g id="node1" class="node"><title>In0</title>
<polygon fill="lightgray" stroke="black" points="87.055,-258.936 58.055,-258.936 58.055,-240.936 87.055,-240.936 87.055,-258.936"/>
<text text-anchor="middle" x="72.555" y="-247.736" font-family="Times New Roman,serif" font-size="9.00">In0</text>
</g>
<!-- act1 -->
<g id="node5" class="node"><title>act1</title>
<ellipse fill="lightblue" stroke="black" cx="279.555" cy="-103.882" rx="22.7556" ry="22.7556"/>
<text text-anchor="middle" x="279.555" y="-101.682" font-family="Times New Roman,serif" font-size="9.00">act1</text>
</g>
<!-- In0&#45;&gt;act1 -->
<g id="edge1" class="edge"><title>In0&#45;&gt;act1</title>
<path fill="none" stroke="red" stroke-width="0.149386" d="M87.2926,-244.907C108.793,-238.595 149.471,-224.988 179.555,-204.936 210.904,-184.041 240.59,-152.261 259.349,-130.144"/>
<polygon fill="red" stroke="red" stroke-width="0.149386" points="262.27,-132.106 265.985,-122.184 256.893,-127.624 262.27,-132.106"/>
</g>
<!-- act2 -->
<g id="node6" class="node"><title>act2</title>
<ellipse fill="lightblue" stroke="black" cx="159.555" cy="-22.6274" rx="22.7556" ry="22.7556"/>
<text text-anchor="middle" x="159.555" y="-20.4274" font-family="Times New Roman,serif" font-size="9.00">act2</text>
</g>
<!-- In0&#45;&gt;act2 -->
<g id="edge2" class="edge"><title>In0&#45;&gt;act2</title>
<path fill="none" stroke="red" stroke-width="0.101046" stroke-dasharray="1,5" d="M58.053,-243.046C43.5285,-236.264 22.014,-223.602 12.555,-204.936 -12.9208,-154.662 3.14519,-123.409 40.555,-81.2548 63.6578,-55.2218 101.141,-39.8107 127.864,-31.5717"/>
<polygon fill="red" stroke="red" stroke-width="0.101046" points="128.904,-34.9143 137.527,-28.7579 126.947,-28.1934 128.904,-34.9143"/>
</g>
<!-- 596 -->
<g id="node10" class="node"><title>596</title>
<ellipse fill="white" stroke="black" cx="42.555" cy="-183.723" rx="21.4286" ry="21.4286"/>
<text text-anchor="middle" x="42.555" y="-181.523" font-family="Times New Roman,serif" font-size="9.00">596</text>
</g>
<!-- In0&#45;&gt;596 -->
<g id="edge16" class="edge"><title>In0&#45;&gt;596</title>
<path fill="none" stroke="green" stroke-width="0.241786" d="M68.7555,-240.803C65.3996,-233.62 60.306,-222.718 55.4995,-212.43"/>
<polygon fill="green" stroke="green" stroke-width="0.241786" points="58.6279,-210.857 51.2241,-203.278 52.2859,-213.82 58.6279,-210.857"/>
</g>
<!-- 671 -->
<g id="node12" class="node"><title>671</title>
<ellipse fill="white" stroke="black" cx="102.555" cy="-183.723" rx="21.4286" ry="21.4286"/>
<text text-anchor="middle" x="102.555" y="-181.523" font-family="Times New Roman,serif" font-size="9.00">671</text>
</g>
<!-- In0&#45;&gt;671 -->
<g id="edge18" class="edge"><title>In0&#45;&gt;671</title>
<path fill="none" stroke="green" stroke-width="0.313034" d="M76.3545,-240.803C79.7104,-233.62 84.8039,-222.718 89.6105,-212.43"/>
<polygon fill="green" stroke="green" stroke-width="0.313034" points="92.8241,-213.82 93.8859,-203.278 86.4821,-210.857 92.8241,-213.82"/>
</g>
<!-- In1 -->
<g id="node2" class="node"><title>In1</title>
<polygon fill="lightgray" stroke="black" points="171.055,-192.723 142.055,-192.723 142.055,-174.723 171.055,-174.723 171.055,-192.723"/>
<text text-anchor="middle" x="156.555" y="-181.523" font-family="Times New Roman,serif" font-size="9.00">In1</text>
</g>
<!-- In1&#45;&gt;act1 -->
<g id="edge3" class="edge"><title>In1&#45;&gt;act1</title>
<path fill="none" stroke="green" stroke-width="0.533016" stroke-dasharray="1,5" d="M167.702,-174.632C173.034,-170.845 179.552,-166.336 185.555,-162.51 212.426,-145.385 220.562,-143.441 247.555,-126.51 249.259,-125.441 251.003,-124.325 252.755,-123.189"/>
<polygon fill="green" stroke="green" stroke-width="0.533016" points="255.015,-125.891 261.421,-117.452 251.15,-120.054 255.015,-125.891"/>
</g>
<!-- In1&#45;&gt;act2 -->
<g id="edge4" class="edge"><title>In1&#45;&gt;act2</title>
<path fill="none" stroke="red" stroke-width="0.262931" stroke-dasharray="1,5" d="M151.884,-174.683C146.013,-164.067 136.255,-144.599 132.555,-126.51 128.524,-106.804 128.184,-100.887 132.555,-81.2548 134.818,-71.0897 139.075,-60.5977 143.551,-51.3976"/>
<polygon fill="red" stroke="red" stroke-width="0.262931" points="146.746,-52.8374 148.22,-42.3455 140.525,-49.6286 146.746,-52.8374"/>
</g>
<!-- 37 -->
<g id="node8" class="node"><title>37</title>
<ellipse fill="white" stroke="black" cx="159.555" cy="-103.882" rx="18.2703" ry="18.2703"/>
<text text-anchor="middle" x="159.555" y="-101.682" font-family="Times New Roman,serif" font-size="9.00">37</text>
</g>
<!-- In1&#45;&gt;37 -->
<g id="edge9" class="edge"><title>In1&#45;&gt;37</title>
<path fill="none" stroke="green" stroke-width="0.19641" d="M156.865,-174.686C157.245,-164.808 157.912,-147.525 158.486,-132.628"/>
<polygon fill="green" stroke="green" stroke-width="0.19641" points="161.994,-132.47 158.882,-122.342 154.999,-132.2 161.994,-132.47"/>
</g>
<!-- 264 -->
<g id="node9" class="node"><title>264</title>
<ellipse fill="white" stroke="black" cx="217.555" cy="-103.882" rx="21.4286" ry="21.4286"/>
<text text-anchor="middle" x="217.555" y="-101.682" font-family="Times New Roman,serif" font-size="9.00">264</text>
</g>
<!-- In1&#45;&gt;264 -->
<g id="edge12" class="edge"><title>In1&#45;&gt;264</title>
<path fill="none" stroke="green" stroke-width="0.122093" d="M162.853,-174.686C171.175,-164.067 186.205,-144.887 198.407,-129.316"/>
<polygon fill="green" stroke="green" stroke-width="0.122093" points="201.421,-131.144 204.835,-121.114 195.912,-126.827 201.421,-131.144"/>
</g>
<!-- 92 -->
<g id="node11" class="node"><title>92</title>
<ellipse fill="white" stroke="black" cx="67.555" cy="-103.882" rx="18.2703" ry="18.2703"/>
<text text-anchor="middle" x="67.555" y="-101.682" font-family="Times New Roman,serif" font-size="9.00">92</text>
</g>
<!-- In1&#45;&gt;92 -->
<g id="edge20" class="edge"><title>In1&#45;&gt;92</title>
<path fill="none" stroke="green" stroke-width="0.529978" d="M147.366,-174.686C133.67,-162.708 107.521,-139.837 88.8875,-123.54"/>
<polygon fill="green" stroke="green" stroke-width="0.529978" points="91.005,-120.742 81.1736,-116.793 86.3966,-126.011 91.005,-120.742"/>
</g>
<!-- In3 -->
<g id="node3" class="node"><title>In3</title>
<polygon fill="lightgray" stroke="black" points="355.055,-192.723 326.055,-192.723 326.055,-174.723 355.055,-174.723 355.055,-192.723"/>
<text text-anchor="middle" x="340.555" y="-181.523" font-family="Times New Roman,serif" font-size="9.00">In3</text>
</g>
<!-- In3&#45;&gt;act1 -->
<g id="edge5" class="edge"><title>In3&#45;&gt;act1</title>
<path fill="none" stroke="green" stroke-width="0.259823" stroke-dasharray="1,5" d="M334.257,-174.686C326.141,-164.329 311.643,-145.829 299.612,-130.476"/>
<polygon fill="green" stroke="green" stroke-width="0.259823" points="302.161,-128.054 293.237,-122.342 296.651,-132.372 302.161,-128.054"/>
</g>
<!-- In3&#45;&gt;act2 -->
<g id="edge6" class="edge"><title>In3&#45;&gt;act2</title>
<path fill="none" stroke="green" stroke-width="0.480605" d="M340.572,-174.72C340.178,-155.925 336.602,-108.5 311.555,-81.2548 280.225,-47.1755 226.639,-33.1093 192.181,-27.401"/>
<polygon fill="green" stroke="green" stroke-width="0.480605" points="192.558,-23.9183 182.148,-25.8849 191.512,-30.8398 192.558,-23.9183"/>
</g>
<!-- In4 -->
<g id="node4" class="node"><title>In4</title>
<polygon fill="lightgray" stroke="black" points="301.055,-258.936 272.055,-258.936 272.055,-240.936 301.055,-240.936 301.055,-258.936"/>
<text text-anchor="middle" x="286.555" y="-247.736" font-family="Times New Roman,serif" font-size="9.00">In4</text>
</g>
<!-- In4&#45;&gt;act1 -->
<g id="edge7" class="edge"><title>In4&#45;&gt;act1</title>
<path fill="none" stroke="green" stroke-width="0.264984" d="M278.625,-240.666C271.279,-232.384 260.861,-218.895 256.555,-204.936 249.241,-181.225 256.684,-153.713 264.997,-133.546"/>
<polygon fill="green" stroke="green" stroke-width="0.264984" points="268.249,-134.847 269.087,-124.285 261.845,-132.019 268.249,-134.847"/>
</g>
<!-- In4&#45;&gt;act2 -->
<g id="edge8" class="edge"><title>In4&#45;&gt;act2</title>
<path fill="none" stroke="green" stroke-width="0.613209" d="M301.056,-245.417C319.369,-240.107 350.108,-228.107 363.555,-204.936 391.795,-156.273 376.46,-120.919 336.555,-81.2548 297.398,-42.3345 231.679,-29.6964 192.287,-25.5951"/>
<polygon fill="green" stroke="green" stroke-width="0.613209" points="192.434,-22.094 182.157,-24.6686 191.796,-29.0649 192.434,-22.094"/>
</g>
<!-- 417 -->
<g id="node7" class="node"><title>417</title>
<ellipse fill="white" stroke="black" cx="286.555" cy="-183.723" rx="21.4286" ry="21.4286"/>
<text text-anchor="middle" x="286.555" y="-181.523" font-family="Times New Roman,serif" font-size="9.00">417</text>
</g>
<!-- In4&#45;&gt;417 -->
<g id="edge14" class="edge"><title>In4&#45;&gt;417</title>
<path fill="none" stroke="green" stroke-width="0.28138" d="M286.555,-240.803C286.555,-234.261 286.555,-224.632 286.555,-215.192"/>
<polygon fill="green" stroke="green" stroke-width="0.28138" points="290.055,-215.178 286.555,-205.178 283.055,-215.178 290.055,-215.178"/>
</g>
<!-- 417&#45;&gt;act1 -->
<g id="edge15" class="edge"><title>417&#45;&gt;act1</title>
<path fill="none" stroke="green" stroke-width="0.16207" d="M284.716,-162.271C284.013,-154.457 283.194,-145.351 282.418,-136.724"/>
<polygon fill="green" stroke="green" stroke-width="0.16207" points="285.886,-136.205 281.504,-126.559 278.914,-136.832 285.886,-136.205"/>
</g>
<!-- 37&#45;&gt;act2 -->
<g id="edge10" class="edge"><title>37&#45;&gt;act2</title>
<path fill="none" stroke="green" stroke-width="0.354497" d="M159.555,-85.293C159.555,-76.5606 159.555,-65.7347 159.555,-55.6026"/>
<polygon fill="green" stroke="green" stroke-width="0.354497" points="163.055,-55.4119 159.555,-45.4119 156.055,-55.412 163.055,-55.4119"/>
</g>
<!-- 264&#45;&gt;act2 -->
<g id="edge13" class="edge"><title>264&#45;&gt;act2</title>
<path fill="none" stroke="red" stroke-width="0.493856" d="M205.255,-86.0743C197.495,-75.4708 187.315,-61.5606 178.533,-49.5607"/>
<polygon fill="red" stroke="red" stroke-width="0.493856" points="181.171,-47.238 172.441,-41.2351 175.522,-51.372 181.171,-47.238"/>
</g>
<!-- 596&#45;&gt;92 -->
<g id="edge17" class="edge"><title>596&#45;&gt;92</title>
<path fill="none" stroke="red" stroke-width="0.258993" d="M48.8635,-163.08C51.9446,-153.487 55.697,-141.804 59.029,-131.429"/>
<polygon fill="red" stroke="red" stroke-width="0.258993" points="62.4548,-132.208 62.1804,-121.617 55.7901,-130.068 62.4548,-132.208"/>
</g>
<!-- 92&#45;&gt;act2 -->
<g id="edge11" class="edge"><title>92&#45;&gt;act2</title>
<path fill="none" stroke="red" stroke-width="0.419831" d="M81.1299,-91.1879C95.2189,-79.0508 117.565,-59.8005 134.806,-44.9479"/>
<polygon fill="red" stroke="red" stroke-width="0.419831" points="137.509,-47.2389 142.801,-38.0603 132.94,-41.9354 137.509,-47.2389"/>
</g>
<!-- 671&#45;&gt;92 -->
<g id="edge19" class="edge"><title>671&#45;&gt;92</title>
<path fill="none" stroke="red" stroke-width="0.35713" d="M94.0825,-163.88C89.5134,-153.718 83.8137,-141.042 78.8698,-130.047"/>
<polygon fill="red" stroke="red" stroke-width="0.35713" points="82.0603,-128.608 74.7672,-120.922 75.676,-131.478 82.0603,-128.608"/>
</g>
</g>
</svg>
